<?xml version="1.0" encoding="UTF-8"?>
<svg xmlns="http://www.w3.org/2000/svg" xmlns:xlink="http://www.w3.org/1999/xlink" width="517px" height="200px" viewBox="0 0 518 200" version="1.1">
<g id="surface1">
<path style=" stroke:none;fill-rule:nonzero;fill:rgb(0%,68.235296%,93.725491%);fill-opacity:1;" d="M 375.964844 47.921875 L 386.847656 47.921875 L 386.847656 84.050781 L 375.964844 84.050781 Z M 375.964844 47.921875 "/>
<path style=" stroke:none;fill-rule:nonzero;fill:rgb(0%,68.235296%,93.725491%);fill-opacity:1;" d="M 401.65625 55.78125 L 400.445312 54.875 L 393.796875 63.644531 L 395.007812 64.550781 C 401.050781 68.933594 404.527344 76.039062 404.527344 83.445312 C 404.527344 96.296875 394.101562 106.878906 381.105469 106.878906 C 368.257812 106.878906 357.679688 96.449219 357.679688 83.445312 C 357.679688 76.039062 361.308594 68.933594 367.199219 64.550781 L 368.410156 63.644531 L 361.761719 54.875 L 360.550781 55.78125 C 351.785156 62.28125 346.648438 72.5625 346.648438 83.296875 C 346.648438 102.191406 362.0625 117.613281 380.953125 117.613281 C 399.84375 117.613281 415.257812 102.191406 415.257812 83.296875 C 415.558594 72.5625 410.421875 62.132812 401.65625 55.78125 Z M 401.65625 55.78125 "/>
<path style=" stroke:none;fill-rule:nonzero;fill:rgb(13.333334%,18.039216%,22.352941%);fill-opacity:1;" d="M 105.613281 73.773438 L 116.496094 73.773438 L 116.496094 134.089844 L 105.613281 134.089844 Z M 105.613281 73.773438 "/>
<path style=" stroke:none;fill-rule:nonzero;fill:rgb(13.333334%,18.039216%,22.352941%);fill-opacity:1;" d="M 128.734375 73.773438 L 163.34375 73.773438 L 163.34375 83.144531 L 139.617188 83.144531 L 139.617188 100.226562 L 159.5625 100.226562 L 159.5625 109.597656 L 139.617188 109.597656 L 139.617188 133.9375 L 128.734375 133.9375 Z M 128.734375 73.773438 "/>
<path style=" stroke:none;fill-rule:nonzero;fill:rgb(13.333334%,18.039216%,22.352941%);fill-opacity:1;" d="M 173.617188 73.773438 L 208.222656 73.773438 L 208.222656 83.144531 L 184.5 83.144531 L 184.5 100.226562 L 204.445312 100.226562 L 204.445312 109.597656 L 184.5 109.597656 L 184.5 133.9375 L 173.617188 133.9375 Z M 173.617188 73.773438 "/>
<path style=" stroke:none;fill-rule:nonzero;fill:rgb(13.333334%,18.039216%,22.352941%);fill-opacity:1;" d="M 217.59375 73.773438 L 228.472656 73.773438 L 228.472656 112.320312 C 228.472656 120.332031 233.761719 125.019531 241.773438 125.019531 C 249.78125 125.019531 255.222656 120.484375 255.222656 112.320312 L 255.222656 73.773438 L 266.101562 73.773438 L 266.101562 112.320312 C 266.101562 125.773438 256.28125 134.996094 241.773438 134.996094 C 227.113281 134.996094 217.441406 125.773438 217.441406 112.320312 L 217.441406 73.773438 Z M 217.59375 73.773438 "/>
<path style=" stroke:none;fill-rule:nonzero;fill:rgb(13.333334%,18.039216%,22.352941%);fill-opacity:1;" d="M 281.96875 118.667969 C 281.96875 118.667969 288.46875 125.019531 296.929688 125.019531 C 301.464844 125.019531 305.695312 122.601562 305.695312 117.761719 C 305.695312 107.03125 277.285156 108.84375 277.285156 90.402344 C 277.285156 80.421875 285.898438 72.863281 297.535156 72.863281 C 309.472656 72.863281 315.519531 79.363281 315.519531 79.363281 L 310.832031 88.285156 C 310.832031 88.285156 305.089844 82.992188 297.535156 82.992188 C 292.398438 82.992188 288.46875 86.015625 288.46875 90.25 C 288.46875 100.984375 316.878906 98.261719 316.878906 117.613281 C 316.878906 127.136719 309.625 135.296875 297.082031 135.296875 C 283.632812 135.296875 276.226562 127.136719 276.226562 127.136719 Z M 281.96875 118.667969 "/>
<path style=" stroke:none;fill-rule:nonzero;fill:rgb(13.333334%,18.039216%,22.352941%);fill-opacity:1;" d="M 327.609375 73.773438 L 338.488281 73.773438 L 338.488281 134.089844 L 327.609375 134.089844 Z M 327.609375 73.773438 "/>
<path style=" stroke:none;fill-rule:nonzero;fill:rgb(13.333334%,18.039216%,22.352941%);fill-opacity:1;" d="M 424.625 73.773438 L 435.507812 73.773438 L 458.324219 108.542969 C 460.59375 112.019531 463.3125 117.914062 463.3125 117.914062 L 463.464844 117.914062 C 463.464844 117.914062 462.859375 112.167969 462.859375 108.542969 L 462.859375 73.773438 L 473.738281 73.773438 L 473.738281 134.089844 L 463.011719 134.089844 L 440.191406 99.320312 C 437.925781 95.84375 435.203125 89.945312 435.203125 89.945312 L 435.054688 89.945312 C 435.054688 89.945312 435.65625 95.691406 435.65625 99.320312 L 435.65625 134.089844 L 424.777344 134.089844 L 424.777344 73.773438 Z M 424.625 73.773438 "/>
<path style=" stroke:none;fill-rule:nonzero;fill:rgb(13.333334%,18.039216%,22.352941%);fill-opacity:1;" d="M 65.113281 73.773438 L 44.109375 73.773438 L 44.109375 112.773438 L 54.988281 112.773438 L 54.988281 83.296875 C 55.292969 83.296875 55.441406 83.296875 55.441406 83.296875 L 64.511719 83.296875 C 76.601562 83.296875 84.457031 90.550781 84.457031 103.855469 C 84.457031 117.460938 76.601562 124.714844 64.511719 124.714844 L 44.5625 124.714844 L 44.5625 134.089844 L 65.113281 134.089844 C 83.703125 134.089844 95.792969 122.902344 95.792969 103.855469 C 95.792969 84.808594 83.703125 73.773438 65.113281 73.773438 Z M 65.113281 73.773438 "/>
</g>
</svg>
