<?xml version="1.0" encoding="UTF-8"?>
<svg xmlns="http://www.w3.org/2000/svg" xmlns:xlink="http://www.w3.org/1999/xlink" width="769px" height="200px" viewBox="0 0 766 200" version="1.1">
<g id="surface1">
<path style=" stroke:none;fill-rule:nonzero;fill:rgb(0%,68.235296%,93.725491%);fill-opacity:1;" d="M 604.953125 118.820312 L 584.714844 118.820312 L 579.878906 133.636719 L 569.007812 133.636719 L 589.246094 75.886719 L 600.269531 75.886719 L 620.511719 133.636719 L 609.785156 133.636719 Z M 594.832031 85.867188 C 594.832031 85.867188 593.472656 91.609375 592.417969 94.785156 L 587.28125 110.203125 L 602.386719 110.203125 L 597.25 94.785156 C 596.191406 91.457031 594.984375 85.867188 594.984375 85.867188 Z M 594.832031 85.867188 "/>
<path style=" stroke:none;fill-rule:nonzero;fill:rgb(0%,68.235296%,93.725491%);fill-opacity:1;" d="M 636.671875 84.808594 L 617.792969 84.808594 L 617.792969 75.738281 L 666.125 75.738281 L 666.125 84.808594 L 647.246094 84.808594 L 647.246094 133.484375 L 636.824219 133.484375 L 636.824219 84.808594 Z M 636.671875 84.808594 "/>
<path style=" stroke:none;fill-rule:nonzero;fill:rgb(0%,68.235296%,93.725491%);fill-opacity:1;" d="M 699.050781 118.820312 L 678.8125 118.820312 L 673.980469 133.636719 L 663.105469 133.636719 L 683.34375 75.886719 L 694.371094 75.886719 L 714.609375 133.636719 L 703.734375 133.636719 Z M 688.933594 85.867188 C 688.933594 85.867188 687.574219 91.609375 686.515625 94.785156 L 681.378906 110.203125 L 696.484375 110.203125 L 691.347656 94.785156 C 690.292969 91.457031 689.082031 85.867188 689.082031 85.867188 Z M 688.933594 85.867188 "/>
<path style=" stroke:none;fill-rule:nonzero;fill:rgb(0%,68.235296%,93.725491%);fill-opacity:1;" d="M 387.910156 47.921875 L 398.785156 47.921875 L 398.785156 84.050781 L 387.910156 84.050781 Z M 387.910156 47.921875 "/>
<path style=" stroke:none;fill-rule:nonzero;fill:rgb(0%,68.235296%,93.725491%);fill-opacity:1;" d="M 413.585938 55.78125 L 412.378906 54.875 L 405.730469 63.644531 L 406.941406 64.550781 C 412.980469 68.933594 416.457031 76.039062 416.457031 83.445312 C 416.457031 96.296875 406.035156 106.878906 393.042969 106.878906 C 380.054688 106.878906 369.632812 96.449219 369.632812 83.445312 C 369.632812 76.039062 373.257812 68.933594 379.148438 64.550781 L 380.355469 63.644531 L 373.710938 54.875 L 372.503906 55.78125 C 363.742188 62.28125 358.605469 72.5625 358.605469 83.296875 C 358.605469 102.191406 374.011719 117.613281 392.894531 117.613281 C 411.773438 117.613281 427.179688 102.191406 427.179688 83.296875 C 427.480469 72.5625 422.347656 62.132812 413.585938 55.78125 Z M 413.585938 55.78125 "/>
<path style=" stroke:none;fill-rule:nonzero;fill:rgb(13.333334%,18.039216%,22.352941%);fill-opacity:1;" d="M 117.699219 73.773438 L 128.574219 73.773438 L 128.574219 134.089844 L 117.699219 134.089844 Z M 117.699219 73.773438 "/>
<path style=" stroke:none;fill-rule:nonzero;fill:rgb(13.333334%,18.039216%,22.352941%);fill-opacity:1;" d="M 140.808594 73.773438 L 175.394531 73.773438 L 175.394531 83.144531 L 151.683594 83.144531 L 151.683594 100.226562 L 171.621094 100.226562 L 171.621094 109.597656 L 151.683594 109.597656 L 151.683594 133.9375 L 140.808594 133.9375 Z M 140.808594 73.773438 "/>
<path style=" stroke:none;fill-rule:nonzero;fill:rgb(13.333334%,18.039216%,22.352941%);fill-opacity:1;" d="M 185.667969 73.773438 L 220.253906 73.773438 L 220.253906 83.144531 L 196.539062 83.144531 L 196.539062 100.226562 L 216.476562 100.226562 L 216.476562 109.597656 L 196.539062 109.597656 L 196.539062 133.9375 L 185.667969 133.9375 Z M 185.667969 73.773438 "/>
<path style=" stroke:none;fill-rule:nonzero;fill:rgb(13.333334%,18.039216%,22.352941%);fill-opacity:1;" d="M 229.617188 73.773438 L 240.492188 73.773438 L 240.492188 112.320312 C 240.492188 120.332031 245.78125 125.019531 253.785156 125.019531 C 261.789062 125.019531 267.226562 120.484375 267.226562 112.320312 L 267.226562 73.773438 L 278.101562 73.773438 L 278.101562 112.320312 C 278.101562 125.773438 268.285156 134.996094 253.785156 134.996094 C 239.132812 134.996094 229.46875 125.773438 229.46875 112.320312 L 229.46875 73.773438 Z M 229.617188 73.773438 "/>
<path style=" stroke:none;fill-rule:nonzero;fill:rgb(13.333334%,18.039216%,22.352941%);fill-opacity:1;" d="M 293.960938 118.667969 C 293.960938 118.667969 300.457031 125.019531 308.914062 125.019531 C 313.445312 125.019531 317.675781 122.601562 317.675781 117.761719 C 317.675781 107.03125 289.28125 108.84375 289.28125 90.402344 C 289.28125 80.421875 297.890625 72.863281 309.519531 72.863281 C 321.449219 72.863281 327.492188 79.363281 327.492188 79.363281 L 322.808594 88.285156 C 322.808594 88.285156 317.070312 82.992188 309.519531 82.992188 C 304.382812 82.992188 300.457031 86.015625 300.457031 90.25 C 300.457031 100.984375 328.851562 98.261719 328.851562 117.613281 C 328.851562 127.136719 321.601562 135.296875 309.066406 135.296875 C 295.625 135.296875 288.222656 127.136719 288.222656 127.136719 Z M 293.960938 118.667969 "/>
<path style=" stroke:none;fill-rule:nonzero;fill:rgb(13.333334%,18.039216%,22.352941%);fill-opacity:1;" d="M 339.574219 73.773438 L 350.449219 73.773438 L 350.449219 134.089844 L 339.574219 134.089844 Z M 339.574219 73.773438 "/>
<path style=" stroke:none;fill-rule:nonzero;fill:rgb(13.333334%,18.039216%,22.352941%);fill-opacity:1;" d="M 436.542969 73.773438 L 447.417969 73.773438 L 470.226562 108.542969 C 472.492188 112.019531 475.210938 117.914062 475.210938 117.914062 L 475.359375 117.914062 C 475.359375 117.914062 474.757812 112.167969 474.757812 108.542969 L 474.757812 73.773438 L 485.632812 73.773438 L 485.632812 134.089844 L 474.757812 134.089844 L 451.949219 99.320312 C 449.683594 95.84375 446.964844 89.945312 446.964844 89.945312 L 446.8125 89.945312 C 446.8125 89.945312 447.417969 95.691406 447.417969 99.320312 L 447.417969 134.089844 L 436.542969 134.089844 Z M 436.542969 73.773438 "/>
<path style=" stroke:none;fill-rule:nonzero;fill:rgb(13.333334%,18.039216%,22.352941%);fill-opacity:1;" d="M 77.21875 73.773438 L 56.226562 73.773438 L 56.226562 112.773438 L 67.097656 112.773438 L 67.097656 83.296875 C 67.402344 83.296875 67.550781 83.296875 67.550781 83.296875 L 76.613281 83.296875 C 88.699219 83.296875 96.550781 90.550781 96.550781 103.855469 C 96.550781 117.460938 88.699219 124.714844 76.613281 124.714844 L 56.679688 124.714844 L 56.679688 134.089844 L 77.21875 134.089844 C 95.796875 134.089844 107.878906 122.902344 107.878906 103.855469 C 107.878906 84.808594 95.796875 73.773438 77.21875 73.773438 Z M 77.21875 73.773438 "/>
<path style=" stroke:none;fill-rule:nonzero;fill:rgb(0%,68.235296%,93.725491%);fill-opacity:1;" d="M 536.230469 75.886719 L 516.59375 75.886719 L 516.59375 112.925781 L 527.015625 112.925781 L 527.015625 84.808594 L 535.625 84.808594 C 547.105469 84.808594 554.808594 91.761719 554.808594 104.609375 C 554.808594 117.613281 547.40625 124.566406 535.625 124.566406 L 516.59375 124.566406 L 516.59375 133.636719 L 536.230469 133.636719 C 554.054688 133.636719 565.683594 122.902344 565.683594 104.761719 C 565.683594 86.621094 554.054688 75.886719 536.230469 75.886719 Z M 536.230469 75.886719 "/>
</g>
</svg>
